# xmcd CD database file
#
# Track frame offsets:
#	150
#	17850
#	33498
#	51868
#	68563
#	88079
#	110671
#	130107
#	152507
#	179544
#	195984
#	224898
#	246884
#	248115
#	260507
#	276833
#	292468
#	311306
#
# Disc length: 4458 seconds
#
# Revision: 0
# Processed by: cddbd v1.5.1PL2 Copyright (c) Steve Scherf et al.
# Submitted via: CDex 1.51
#
DISCID=12116812
DTITLE=Beyonce - Dangerously In Love
DYEAR=1900
DGENRE=R&B
TTITLE0=Crazy In Love
TTITLE1=Naughty Girl
TTITLE2=Baby Boy
TTITLE3=Hip Hop Star
TTITLE4=Be With You
TTITLE5=Me, Myself and I
TTITLE6=Yes
TTITLE7=Signs
TTITLE8=Speechless
TTITLE9=That's How You Like It
TTITLE10=The Closer I Get To You
TTITLE11=Dangerously In Love 2
TTITLE12=Beyonce Interlude
TTITLE13=Gift From Virgo
TTITLE14=Whats It Gonna Be
TTITLE15='03 Bonnie and Clyde
TTITLE16=Work it Out
TTITLE17=Daddy
EXTD=
EXTT0=
EXTT1=
EXTT2=
EXTT3=
EXTT4=
EXTT5=
EXTT6=
EXTT7=
EXTT8=
EXTT9=
EXTT10=
EXTT11=
EXTT12=
EXTT13=
EXTT14=
EXTT15=
EXTT16=
EXTT17=
PLAYORDER=
